# xmcd
#
# Track frame offsets: 
#        150
#        12961
#        29179
#        45878
#        63019
#        80939
#        94740
#        112396
#        123148
#        139287
#
# Disc length: 2110 seconds
#
# Revision: 0
# Processed by: cddbd v1.5.2PL0 Copyright (c) Steve Scherf et al.
# Submitted via: ExactAudioCopy v1.0b3
#
DISCID=88083c0a
DTITLE=TJ Nelson - It's A Country Thang
DYEAR=1900
DGENRE=Country
TTITLE0=Heart Hurtin' Tear Jerkin' Song
TTITLE1=If You Think You're Lonely
TTITLE2=Aren't You Glad
TTITLE3=Raining Underneath The Rainbow
TTITLE4=Only A Fool
TTITLE5=Ain't That Girl Something
TTITLE6=When Angels Fall
TTITLE7=My Old Flame
TTITLE8=More Than Anything
TTITLE9=The Promise
EXTD=
EXTT0=
EXTT1=
EXTT2=
EXTT3=
EXTT4=
EXTT5=
EXTT6=
EXTT7=
EXTT8=
EXTT9=
PLAYORDER=
